<?xml version="1.0" encoding="UTF-8"?>
<svg xmlns="http://www.w3.org/2000/svg" viewBox="0 0 128 128" fill="none">
  <defs>
    <radialGradient id="fl-glow">
      <stop offset="0%" stop-color="#ff8030" stop-opacity="0.25"/>
      <stop offset="100%" stop-color="#ff8030" stop-opacity="0"/>
    </radialGradient>
  </defs>
  <circle cx="64" cy="64" r="58" fill="url(#fl-glow)"/>
  <g stroke="#ff8030" stroke-width="1.8" stroke-linecap="round" fill="#ff8030">
    <g transform="rotate(0 64 64)"><line x1="64" y1="44" x2="64" y2="23" fill="none"/><ellipse cx="64" cy="19" rx="4.2" ry="3.2"/></g>
    <g transform="rotate(30 64 64)"><line x1="64" y1="44" x2="64" y2="23" fill="none"/><ellipse cx="64" cy="19" rx="4.2" ry="3.2"/></g>
    <g transform="rotate(60 64 64)"><line x1="64" y1="44" x2="64" y2="23" fill="none"/><ellipse cx="64" cy="19" rx="4.2" ry="3.2"/></g>
    <g transform="rotate(90 64 64)"><line x1="64" y1="44" x2="64" y2="23" fill="none"/><ellipse cx="64" cy="19" rx="4.2" ry="3.2"/></g>
    <g transform="rotate(120 64 64)"><line x1="64" y1="44" x2="64" y2="23" fill="none"/><ellipse cx="64" cy="19" rx="4.2" ry="3.2"/></g>
    <g transform="rotate(150 64 64)"><line x1="64" y1="44" x2="64" y2="23" fill="none"/><ellipse cx="64" cy="19" rx="4.2" ry="3.2"/></g>
    <g transform="rotate(180 64 64)"><line x1="64" y1="44" x2="64" y2="23" fill="none"/><ellipse cx="64" cy="19" rx="4.2" ry="3.2"/></g>
    <g transform="rotate(210 64 64)"><line x1="64" y1="44" x2="64" y2="23" fill="none"/><ellipse cx="64" cy="19" rx="4.2" ry="3.2"/></g>
    <g transform="rotate(240 64 64)"><line x1="64" y1="44" x2="64" y2="23" fill="none"/><ellipse cx="64" cy="19" rx="4.2" ry="3.2"/></g>
    <g transform="rotate(270 64 64)"><line x1="64" y1="44" x2="64" y2="23" fill="none"/><ellipse cx="64" cy="19" rx="4.2" ry="3.2"/></g>
    <g transform="rotate(300 64 64)"><line x1="64" y1="44" x2="64" y2="23" fill="none"/><ellipse cx="64" cy="19" rx="4.2" ry="3.2"/></g>
    <g transform="rotate(330 64 64)"><line x1="64" y1="44" x2="64" y2="23" fill="none"/><ellipse cx="64" cy="19" rx="4.2" ry="3.2"/></g>
  </g>
  <g stroke="#ffa860" stroke-width="1.2" stroke-linecap="round" fill="#ffa860" stroke-opacity="0.85">
    <g transform="rotate(15 64 64)"><line x1="64" y1="44" x2="64" y2="30" fill="none"/><circle cx="64" cy="28" r="2"/></g>
    <g transform="rotate(45 64 64)"><line x1="64" y1="44" x2="64" y2="30" fill="none"/><circle cx="64" cy="28" r="2"/></g>
    <g transform="rotate(75 64 64)"><line x1="64" y1="44" x2="64" y2="30" fill="none"/><circle cx="64" cy="28" r="2"/></g>
    <g transform="rotate(105 64 64)"><line x1="64" y1="44" x2="64" y2="30" fill="none"/><circle cx="64" cy="28" r="2"/></g>
    <g transform="rotate(135 64 64)"><line x1="64" y1="44" x2="64" y2="30" fill="none"/><circle cx="64" cy="28" r="2"/></g>
    <g transform="rotate(165 64 64)"><line x1="64" y1="44" x2="64" y2="30" fill="none"/><circle cx="64" cy="28" r="2"/></g>
    <g transform="rotate(195 64 64)"><line x1="64" y1="44" x2="64" y2="30" fill="none"/><circle cx="64" cy="28" r="2"/></g>
    <g transform="rotate(225 64 64)"><line x1="64" y1="44" x2="64" y2="30" fill="none"/><circle cx="64" cy="28" r="2"/></g>
    <g transform="rotate(255 64 64)"><line x1="64" y1="44" x2="64" y2="30" fill="none"/><circle cx="64" cy="28" r="2"/></g>
    <g transform="rotate(285 64 64)"><line x1="64" y1="44" x2="64" y2="30" fill="none"/><circle cx="64" cy="28" r="2"/></g>
    <g transform="rotate(315 64 64)"><line x1="64" y1="44" x2="64" y2="30" fill="none"/><circle cx="64" cy="28" r="2"/></g>
    <g transform="rotate(345 64 64)"><line x1="64" y1="44" x2="64" y2="30" fill="none"/><circle cx="64" cy="28" r="2"/></g>
  </g>
  <circle cx="64" cy="64" r="22" fill="#0a0608" stroke="#ff8030" stroke-width="2"/>
  <circle cx="64" cy="64" r="19" fill="none" stroke="#ff8030" stroke-width="0.7" stroke-opacity="0.5" stroke-dasharray="2 2"/>
  <circle cx="64" cy="64" r="15" fill="none" stroke="#ff8030" stroke-width="0.4" stroke-opacity="0.3"/>
  <g stroke="#ffc890" stroke-width="0.7" fill="none" stroke-opacity="0.7">
    <path d="M 56 58 Q 60 56, 64 58 Q 68 60, 72 58"/>
    <path d="M 56 62 Q 60 64, 64 62 Q 68 60, 72 62"/>
    <path d="M 56 66 Q 60 64, 64 66 Q 68 68, 72 66"/>
    <path d="M 56 70 Q 60 72, 64 70 Q 68 68, 72 70"/>
  </g>
  <circle cx="64" cy="64" r="3" fill="#ff8030" fill-opacity="0.9"/>
</svg>
