<?xml version="1.0" encoding="UTF-8"?>
<svg xmlns="http://www.w3.org/2000/svg" viewBox="0 0 128 128" fill="none">
  <defs>
    <radialGradient id="rh-core" cx="40%" cy="35%">
      <stop offset="0%" stop-color="#ffb0c0"/>
      <stop offset="50%" stop-color="#ff3860"/>
      <stop offset="100%" stop-color="#5a0a1a"/>
    </radialGradient>
    <radialGradient id="rh-glow">
      <stop offset="0%" stop-color="#ff3860" stop-opacity="0.25"/>
      <stop offset="100%" stop-color="#ff3860" stop-opacity="0"/>
    </radialGradient>
  </defs>
  <circle cx="64" cy="64" r="60" fill="url(#rh-glow)"/>
  <circle cx="64" cy="64" r="50" fill="none" stroke="#ff3860" stroke-width="0.5" stroke-opacity="0.15" stroke-dasharray="1 3"/>
  <g stroke="#ff3860" stroke-width="2" stroke-linecap="round">
    <g transform="rotate(0 64 64)">
      <line x1="64" y1="42" x2="64" y2="18"/>
      <polygon points="64,14 67,20 61,20" fill="#ff3860" stroke="none"/>
    </g>
    <g transform="rotate(22.5 64 64)">
      <line x1="64" y1="42" x2="64" y2="20"/>
      <circle cx="64" cy="18" r="2" fill="#ff3860" stroke="none"/>
    </g>
    <g transform="rotate(45 64 64)">
      <line x1="64" y1="42" x2="64" y2="18"/>
      <polygon points="64,14 66.5,20 61.5,20" fill="#ff3860" stroke="none"/>
    </g>
    <g transform="rotate(67.5 64 64)">
      <line x1="64" y1="42" x2="64" y2="20"/>
      <circle cx="64" cy="18" r="2" fill="#ff3860" stroke="none"/>
    </g>
    <g transform="rotate(90 64 64)">
      <line x1="64" y1="42" x2="64" y2="18"/>
      <polygon points="64,14 67,20 61,20" fill="#ff3860" stroke="none"/>
    </g>
    <g transform="rotate(112.5 64 64)">
      <line x1="64" y1="42" x2="64" y2="20"/>
      <circle cx="64" cy="18" r="2" fill="#ff3860" stroke="none"/>
    </g>
    <g transform="rotate(135 64 64)">
      <line x1="64" y1="42" x2="64" y2="18"/>
      <polygon points="64,14 66.5,20 61.5,20" fill="#ff3860" stroke="none"/>
    </g>
    <g transform="rotate(157.5 64 64)">
      <line x1="64" y1="42" x2="64" y2="20"/>
      <circle cx="64" cy="18" r="2" fill="#ff3860" stroke="none"/>
    </g>
    <g transform="rotate(180 64 64)">
      <line x1="64" y1="42" x2="64" y2="18"/>
      <polygon points="64,14 67,20 61,20" fill="#ff3860" stroke="none"/>
    </g>
    <g transform="rotate(202.5 64 64)">
      <line x1="64" y1="42" x2="64" y2="20"/>
      <circle cx="64" cy="18" r="2" fill="#ff3860" stroke="none"/>
    </g>
    <g transform="rotate(225 64 64)">
      <line x1="64" y1="42" x2="64" y2="18"/>
      <polygon points="64,14 66.5,20 61.5,20" fill="#ff3860" stroke="none"/>
    </g>
    <g transform="rotate(247.5 64 64)">
      <line x1="64" y1="42" x2="64" y2="20"/>
      <circle cx="64" cy="18" r="2" fill="#ff3860" stroke="none"/>
    </g>
    <g transform="rotate(270 64 64)">
      <line x1="64" y1="42" x2="64" y2="18"/>
      <polygon points="64,14 67,20 61,20" fill="#ff3860" stroke="none"/>
    </g>
    <g transform="rotate(292.5 64 64)">
      <line x1="64" y1="42" x2="64" y2="20"/>
      <circle cx="64" cy="18" r="2" fill="#ff3860" stroke="none"/>
    </g>
    <g transform="rotate(315 64 64)">
      <line x1="64" y1="42" x2="64" y2="18"/>
      <polygon points="64,14 66.5,20 61.5,20" fill="#ff3860" stroke="none"/>
    </g>
    <g transform="rotate(337.5 64 64)">
      <line x1="64" y1="42" x2="64" y2="20"/>
      <circle cx="64" cy="18" r="2" fill="#ff3860" stroke="none"/>
    </g>
  </g>
  <circle cx="64" cy="64" r="22" fill="url(#rh-core)" stroke="#ff3860" stroke-width="2"/>
  <polygon points="64,48 76,56 76,72 64,80 52,72 52,56"
           fill="none" stroke="#ff3860" stroke-width="0.6" stroke-opacity="0.35"/>
  <g fill="#1a0308" opacity="0.5">
    <circle cx="58" cy="60" r="3.2"/>
    <circle cx="71" cy="70" r="2.5"/>
    <circle cx="68" cy="57" r="1.8"/>
  </g>
  <g fill="#ff3860" fill-opacity="0.9">
    <circle cx="60" cy="63" r="1.5"/>
    <circle cx="68" cy="65" r="1.5"/>
    <circle cx="64" cy="69" r="1.2"/>
  </g>
  <path d="M 58 66 Q 62 63 66 66 Q 70 69 72 65"
        stroke="#ff3860" stroke-width="0.8" fill="none" stroke-opacity="0.8"/>
</svg>
