<?xml version="1.0" encoding="UTF-8"?>
<svg xmlns="http://www.w3.org/2000/svg" viewBox="0 0 128 128" fill="none">
  <defs>
    <radialGradient id="imm-core"><stop offset="0%" stop-color="#a5f5dc"/><stop offset="50%" stop-color="#5de0b5"/><stop offset="100%" stop-color="#2d8a6b" stop-opacity="0"/></radialGradient>
    <radialGradient id="imm-amb"><stop offset="0%" stop-color="#5de0b5" stop-opacity="0.18"/><stop offset="100%" stop-color="#5de0b5" stop-opacity="0"/></radialGradient>
    <linearGradient id="imm-body" x1="0%" y1="0%" x2="0%" y2="100%"><stop offset="0%" stop-color="#1a5f4e" stop-opacity="0.5"/><stop offset="100%" stop-color="#0d3d33" stop-opacity="0.75"/></linearGradient>
  </defs>
  <circle cx="64" cy="64" r="62" fill="url(#imm-amb)"/>
  <circle cx="64" cy="64" r="60" fill="none" stroke="#5de0b5" stroke-width="0.7" stroke-opacity="0.45" stroke-dasharray="2 4"/>
  <circle cx="64" cy="64" r="54" fill="none" stroke="#5de0b5" stroke-width="0.6" stroke-opacity="0.35" stroke-dasharray="1 3"/>
  <polygon points="64,18 103.84,41 103.84,87 64,110 24.16,87 24.16,41"
           fill="url(#imm-body)" stroke="#5de0b5" stroke-width="3" stroke-linejoin="round"/>
  <polygon points="64,32 91.71,48 91.71,80 64,96 36.29,80 36.29,48"
           fill="none" stroke="#5de0b5" stroke-width="1" stroke-opacity="0.6"/>
  <polygon points="64,44 81.32,54 81.32,74 64,84 46.68,74 46.68,54"
           fill="none" stroke="#5de0b5" stroke-width="0.8" stroke-opacity="0.45" stroke-dasharray="2 2"/>
  <g stroke="#5de0b5" stroke-width="0.7" stroke-opacity="0.35" stroke-dasharray="1 3" stroke-linecap="round">
    <line x1="64" y1="64" x2="64"     y2="18"/>
    <line x1="64" y1="64" x2="103.84" y2="41"/>
    <line x1="64" y1="64" x2="103.84" y2="87"/>
    <line x1="64" y1="64" x2="64"     y2="110"/>
    <line x1="64" y1="64" x2="24.16"  y2="87"/>
    <line x1="64" y1="64" x2="24.16"  y2="41"/>
  </g>
  <g fill="#5de0b5">
    <polygon points="59,18         69,18         64,8"/>
    <polygon points="101.34,36.67  106.34,45.33  112.5,36"/>
    <polygon points="106.34,82.67  101.34,91.33  112.5,92"/>
    <polygon points="69,110        59,110        64,120"/>
    <polygon points="26.66,91.33   21.66,82.67   15.5,92"/>
    <polygon points="21.66,45.33   26.66,36.67   15.5,36"/>
  </g>
  <g stroke="#5de0b5" stroke-width="1.5" stroke-opacity="0.85" stroke-linecap="round">
    <line x1="83.92" y1="29.5"  x2="88.92" y2="20.84"/>
    <line x1="103.84" y1="64"   x2="113.84" y2="64"/>
    <line x1="83.92" y1="98.5"  x2="88.92" y2="107.16"/>
    <line x1="44.08" y1="98.5"  x2="39.08" y2="107.16"/>
    <line x1="24.16" y1="64"    x2="14.16" y2="64"/>
    <line x1="44.08" y1="29.5"  x2="39.08" y2="20.84"/>
  </g>
  <g fill="#5de0b5" fill-opacity="0.85">
    <circle cx="64"    cy="38"    r="1.6"/>
    <circle cx="86.52" cy="51"    r="1.6"/>
    <circle cx="86.52" cy="77"    r="1.6"/>
    <circle cx="64"    cy="90"    r="1.6"/>
    <circle cx="41.48" cy="77"    r="1.6"/>
    <circle cx="41.48" cy="51"    r="1.6"/>
    <circle cx="64"    cy="48"    r="1.3"/>
    <circle cx="77.86" cy="56"    r="1.3"/>
    <circle cx="77.86" cy="72"    r="1.3"/>
    <circle cx="64"    cy="80"    r="1.3"/>
    <circle cx="50.14" cy="72"    r="1.3"/>
    <circle cx="50.14" cy="56"    r="1.3"/>
  </g>
  <circle cx="64" cy="64" r="22" fill="none" stroke="#5de0b5" stroke-width="0.9" stroke-opacity="0.45"/>
  <circle cx="64" cy="64" r="17" fill="none" stroke="#5de0b5" stroke-width="1.2" stroke-opacity="0.7"/>
  <circle cx="64" cy="64" r="11" fill="none" stroke="#5de0b5" stroke-width="1.3" stroke-opacity="0.9"/>
  <g stroke="#5de0b5" stroke-width="1.2" stroke-opacity="0.85" stroke-linecap="round">
    <line x1="64" y1="42" x2="64" y2="50"/>
    <line x1="64" y1="78" x2="64" y2="86"/>
    <line x1="42" y1="64" x2="50" y2="64"/>
    <line x1="78" y1="64" x2="86" y2="64"/>
  </g>
  <circle cx="64" cy="64" r="10"  fill="url(#imm-core)"/>
  <circle cx="64" cy="64" r="3.5" fill="#e5fdf2"/>
</svg>
