<?xml version="1.0" encoding="UTF-8"?>
<svg xmlns="http://www.w3.org/2000/svg" viewBox="0 0 128 128" fill="none">
  <defs>
    <radialGradient id="neu-core-cr"><stop offset="0%" stop-color="#ffb0b8"/><stop offset="50%" stop-color="#ff5566"/><stop offset="100%" stop-color="#7a0a18" stop-opacity="0"/></radialGradient>
    <radialGradient id="neu-amb-cr"><stop offset="0%" stop-color="#ff5566" stop-opacity="0.18"/><stop offset="100%" stop-color="#ff5566" stop-opacity="0"/></radialGradient>
    <linearGradient id="neu-body-cr" x1="0%" y1="0%" x2="0%" y2="100%"><stop offset="0%" stop-color="#7a1428" stop-opacity="0.5"/><stop offset="100%" stop-color="#280a10" stop-opacity="0.78"/></linearGradient>
  </defs>
  <circle cx="64" cy="64" r="56" fill="url(#neu-amb-cr)"/>
  <path d="
    M 20 64
    C 20 38, 42 36, 48 52
    C 52 60, 60 60, 64 60
    C 68 60, 76 60, 80 52
    C 86 36, 108 38, 108 64
    C 108 90, 86 92, 80 76
    C 76 68, 68 68, 64 68
    C 60 68, 52 68, 48 76
    C 42 92, 20 90, 20 64
    Z"
    fill="url(#neu-body-cr)" stroke="#e63946" stroke-width="2.5" stroke-linejoin="round"/>
  <circle cx="40" cy="64" r="7"   fill="none" stroke="#e63946" stroke-width="1.2" stroke-opacity="0.8"/>
  <circle cx="40" cy="64" r="3.5" fill="url(#neu-core-cr)"/>
  <circle cx="40" cy="64" r="1.3" fill="#ffe0e6"/>
  <circle cx="88" cy="64" r="7"   fill="none" stroke="#e63946" stroke-width="1.2" stroke-opacity="0.8"/>
  <circle cx="88" cy="64" r="3.5" fill="url(#neu-core-cr)"/>
  <circle cx="88" cy="64" r="1.3" fill="#ffe0e6"/>
  <line x1="60" y1="64" x2="68" y2="64" stroke="#e63946" stroke-width="0.8" stroke-opacity="0.7" stroke-dasharray="1 1"/>
  <g fill="#ff8899" fill-opacity="0.85">
    <circle cx="30"  cy="52" r="1.2"/><circle cx="98"  cy="52" r="1.2"/>
    <circle cx="30"  cy="76" r="1.2"/><circle cx="98"  cy="76" r="1.2"/>
    <circle cx="28"  cy="64" r="1"/>  <circle cx="100" cy="64" r="1"/>
    <circle cx="48"  cy="50" r="1"/>  <circle cx="80"  cy="50" r="1"/>
    <circle cx="48"  cy="78" r="1"/>  <circle cx="80"  cy="78" r="1"/>
  </g>
  <g stroke="#e63946" stroke-width="1" stroke-opacity="0.5" stroke-linecap="round">
    <line x1="20" y1="64" x2="14"  y2="64"/>
    <line x1="108" y1="64" x2="114" y2="64"/>
  </g>
</svg>
