<?xml version="1.0" encoding="UTF-8"?>
<svg xmlns="http://www.w3.org/2000/svg" viewBox="0 0 128 128" fill="none">
  <defs>
    <radialGradient id="nk-core"><stop offset="0%" stop-color="#ffcffb"/><stop offset="50%" stop-color="#ff88dd"/><stop offset="100%" stop-color="#6a2090" stop-opacity="0"/></radialGradient>
    <radialGradient id="nk-amb"><stop offset="0%" stop-color="#ff88dd" stop-opacity="0.18"/><stop offset="100%" stop-color="#ff88dd" stop-opacity="0"/></radialGradient>
    <linearGradient id="nk-body" x1="0%" y1="0%" x2="0%" y2="100%"><stop offset="0%" stop-color="#6a2060" stop-opacity="0.5"/><stop offset="100%" stop-color="#300a38" stop-opacity="0.78"/></linearGradient>
  </defs>
  <circle cx="64" cy="64" r="60" fill="url(#nk-amb)"/>
  <polygon points="64,6 122,64 64,122 6,64" fill="none" stroke="#ff88dd" stroke-width="0.7" stroke-opacity="0.4" stroke-dasharray="3 4"/>
  <g stroke="#ff88dd" stroke-width="1.5" stroke-opacity="0.85" stroke-linecap="round" fill="none">
    <path d="M 10 20 L 10 10 L 20 10"/>
    <path d="M 108 10 L 118 10 L 118 20"/>
    <path d="M 118 108 L 118 118 L 108 118"/>
    <path d="M 20 118 L 10 118 L 10 108"/>
  </g>
  <g stroke="#ff88dd" stroke-width="1" stroke-opacity="0.7" stroke-linecap="round" stroke-dasharray="2 3">
    <line x1="64"  y1="14"  x2="64"  y2="2"/>
    <line x1="114" y1="64"  x2="126" y2="64"/>
    <line x1="64"  y1="114" x2="64"  y2="126"/>
    <line x1="14"  y1="64"  x2="2"   y2="64"/>
  </g>
  <polygon points="64,16 112,64 64,112 16,64"
           fill="url(#nk-body)" stroke="#ff88dd" stroke-width="3" stroke-linejoin="round"/>
  <polygon points="64,28 100,64 64,100 28,64" fill="none" stroke="#ff88dd" stroke-width="1.2" stroke-opacity="0.65"/>
  <polygon points="64,40 88,64 64,88 40,64"   fill="none" stroke="#ff88dd" stroke-width="0.9" stroke-opacity="0.45"/>
  <polygon points="64,48 80,64 64,80 48,64"   fill="none" stroke="#ff88dd" stroke-width="0.7" stroke-opacity="0.35" stroke-dasharray="2 2"/>
  <g stroke="#ff88dd" stroke-width="0.7" stroke-opacity="0.7" stroke-linecap="round">
    <line x1="64" y1="64" x2="50" y2="28"/>
    <line x1="64" y1="64" x2="58" y2="20"/>
    <line x1="64" y1="64" x2="64" y2="18"/>
    <line x1="64" y1="64" x2="70" y2="20"/>
    <line x1="64" y1="64" x2="78" y2="28"/>
  </g>
  <g fill="#ff88dd">
    <circle cx="64" cy="20" r="2.2"/>
    <circle cx="58" cy="22" r="2"/>  <circle cx="70" cy="22" r="2"/>
    <circle cx="50" cy="28" r="1.8"/><circle cx="78" cy="28" r="1.8"/>
    <circle cx="54" cy="40" r="1.5"/><circle cx="74" cy="40" r="1.5"/>
    <circle cx="58" cy="52" r="1.3"/><circle cx="70" cy="52" r="1.3"/>
    <circle cx="40" cy="52" r="1.2"/><circle cx="88" cy="52" r="1.2"/>
    <circle cx="58" cy="104" r="1.3"/><circle cx="70" cy="104" r="1.3"/>
  </g>
  <g fill="#ff88dd">
    <polygon points="58,16 70,16 64,4"/>
    <polygon points="112,58 112,70 124,64"/>
    <polygon points="58,112 70,112 64,124"/>
    <polygon points="16,58 16,70 4,64"/>
  </g>
  <circle cx="64" cy="64" r="14" fill="none" stroke="#ff88dd" stroke-width="1.3" stroke-opacity="0.9"/>
  <circle cx="64" cy="64" r="9"  fill="none" stroke="#ff88dd" stroke-width="0.9" stroke-opacity="0.65"/>
  <circle cx="64" cy="64" r="5"  fill="none" stroke="#ff88dd" stroke-width="0.7" stroke-opacity="0.5"/>
  <g stroke="#ff88dd" stroke-width="1" stroke-opacity="0.8" stroke-linecap="round">
    <line x1="50" y1="64" x2="55" y2="64"/>
    <line x1="73" y1="64" x2="78" y2="64"/>
    <line x1="64" y1="50" x2="64" y2="55"/>
    <line x1="64" y1="73" x2="64" y2="78"/>
  </g>
  <circle cx="64" cy="64" r="7"   fill="url(#nk-core)"/>
  <circle cx="64" cy="64" r="2.5" fill="#ffdff5"/>
</svg>
